<?xml version="1.0" encoding="UTF-8" standalone="no"?>
<svg
   xmlns:dc="http://purl.org/dc/elements/1.1/"
   xmlns:cc="http://creativecommons.org/ns#"
   xmlns:rdf="http://www.w3.org/1999/02/22-rdf-syntax-ns#"
   xmlns:svg="http://www.w3.org/2000/svg"
   xmlns="http://www.w3.org/2000/svg"
   id="svg8"
   version="1.1"
   viewBox="0 0 52.141834 23.774399"
   height="23.774399mm"
   width="52.141834mm">
  <defs
     id="defs2" />
  <metadata
     id="metadata5">
    <rdf:RDF>
      <cc:Work
         rdf:about="">
        <dc:format>image/svg+xml</dc:format>
        <dc:type
           rdf:resource="http://purl.org/dc/dcmitype/StillImage" />
        <dc:title></dc:title>
      </cc:Work>
    </rdf:RDF>
  </metadata>
  <g
     transform="translate(-16.489586,-22.509873)"
     id="layer1">
    <g
       id="flowRoot815"
       style="font-style:normal;font-variant:normal;font-weight:500;font-stretch:normal;font-size:96px;line-height:1.25;font-family:'Fira Code';-inkscape-font-specification:'Fira Code Medium';letter-spacing:0px;word-spacing:0px;fill:#ffffff;fill-opacity:1;stroke:none"
       transform="scale(0.26458333)"
       aria-label="[BZ]">
      <path
         id="path879"
         style="fill:#ffffff"
         d="m 62.322844,85.076687 h 26.208 v 8.544 h -16.032 v 72.864003 h 16.032 v 8.448 h -26.208 z" />
      <path
         id="path881"
         style="fill:#ffffff"
         d="m 156.26934,144.50069 q 0,10.272 -7.296,14.688 -7.296,4.416 -18.528,4.416 h -19.392 V 97.364687 h 18.144 q 10.56,0 17.376,3.936003 6.816,3.84 6.816,12.864 0,5.76 -3.552,9.504 -3.456,3.648 -8.736,4.8 6.528,1.152 10.848,4.896 4.32,3.648 4.32,11.136 z m -14.208,-29.472 q 0,-4.896 -3.072,-7.104 -2.976,-2.208 -8.832,-2.208 h -7.968 v 19.104 h 8.64 q 5.664,0 8.448,-2.304 2.784,-2.4 2.784,-7.488 z m 2.592,29.472 q 0,-6.24 -3.456,-8.736 -3.456,-2.592 -9.6,-2.592 h -9.408 v 21.792 h 9.024 q 13.44,0 13.44,-10.464 z" />
      <path
         id="path883"
         style="fill:#ffffff"
         d="m 212.67984,154.38869 -1.152,9.216 h -45.024 v -8.64 l 33.696,-48.576 h -30.24 v -9.024003 h 42.528 v 8.736003 l -33.216,48.288 z" />
      <path
         id="path885"
         style="fill:#ffffff"
         d="m 259.39434,174.93269 h -26.208 v -8.544 h 16.032 V 93.620687 h -16.032 v -8.544 h 26.208 z" />
    </g>
  </g>
</svg>
