<?xml version="1.0" encoding="UTF-8" standalone="no"?>
<svg
   xmlns:dc="http://purl.org/dc/elements/1.1/"
   xmlns:cc="http://creativecommons.org/ns#"
   xmlns:rdf="http://www.w3.org/1999/02/22-rdf-syntax-ns#"
   xmlns:svg="http://www.w3.org/2000/svg"
   xmlns="http://www.w3.org/2000/svg"
   id="svg932"
   version="1.1"
   viewBox="0 0 166.78738 10.724444"
   height="10.724444mm"
   width="166.78738mm">
  <defs
     id="defs926" />
  <metadata
     id="metadata929">
    <rdf:RDF>
      <cc:Work
         rdf:about="">
        <dc:format>image/svg+xml</dc:format>
        <dc:type
           rdf:resource="http://purl.org/dc/dcmitype/StillImage" />
        <dc:title></dc:title>
      </cc:Work>
    </rdf:RDF>
  </metadata>
  <g
     transform="translate(-24.033386,-43.677481)"
     id="layer1">
    <g
       id="flowRoot1477"
       style="font-style:normal;font-variant:normal;font-weight:normal;font-stretch:normal;font-size:53.33333588px;line-height:1.25;font-family:'Fira Code';-inkscape-font-specification:'Fira Code';letter-spacing:0px;word-spacing:0px;fill:#ffffff;fill-opacity:1;stroke:none"
       transform="scale(0.26458333)"
       aria-label="BZ :: Coffee -&gt; Code">
      <path
         id="path1571"
         style=""
         d="m 114.51485,194.57358 q 0,5.54667 -4.00001,8 -3.94666,2.45333 -9.76,2.45333 h -9.919996 v -36.74667 h 9.066667 q 5.599999,0 9.279999,2.18667 3.73334,2.13333 3.73334,7.09333 0,3.30667 -1.97334,5.33334 -1.97333,1.97333 -4.90667,2.66666 8.48001,1.44 8.48001,9.01334 z m -6.34667,-16.74667 q 0,-3.04 -1.86667,-4.37333 -1.86667,-1.38667 -5.33333,-1.38667 h -5.493336 v 11.84 h 5.919996 q 6.77334,0 6.77334,-6.08 z m 1.44,16.90667 q 0,-3.89334 -2.13334,-5.44 -2.08,-1.54667 -5.76,-1.54667 h -6.239996 v 13.44 h 6.079996 q 3.36,0 5.70667,-1.38666 2.34667,-1.38667 2.34667,-5.06667 z" />
      <path
         id="path1573"
         style=""
         d="m 145.80068,201.02691 -0.53333,4 h -23.73334 v -3.73333 l 19.36,-29.01334 h -17.44 v -4 h 22.4 v 3.84 l -19.25333,28.90667 z" />
      <path
         id="path1575"
         style=""
         d="m 219.97818,182.04024 q 0,-1.76 1.22667,-2.98666 1.22667,-1.28 3.04,-1.28 1.86667,0 3.09333,1.28 1.22667,1.22666 1.22667,2.98666 0,1.81334 -1.22667,3.09334 -1.22666,1.28 -3.09333,1.28 -1.81333,0 -3.04,-1.28 -1.22667,-1.28 -1.22667,-3.09334 z m 0,19.25334 q 0,-1.76 1.22667,-3.04 1.22667,-1.28 3.04,-1.28 1.86667,0 3.09333,1.28 1.22667,1.22667 1.22667,3.04 0,1.86667 -1.22667,3.09333 -1.22666,1.22667 -3.09333,1.22667 -1.81333,0 -3.04,-1.22667 -1.22667,-1.22666 -1.22667,-3.09333 z m -21.33333,-19.25334 q 0,-1.76 1.22666,-2.98666 1.22667,-1.28 3.04,-1.28 1.86667,0 3.09334,1.28 1.22667,1.22666 1.22667,2.98666 0,1.81334 -1.22667,3.09334 -1.22667,1.28 -3.09334,1.28 -1.81333,0 -3.04,-1.28 -1.22666,-1.28 -1.22666,-3.09334 z m 0,19.25334 q 0,-1.76 1.22666,-3.04 1.22667,-1.28 3.04,-1.28 1.86667,0 3.09334,1.28 1.22667,1.22667 1.22667,3.04 0,1.86667 -1.22667,3.09333 -1.22667,1.22667 -3.09334,1.22667 -1.81333,0 -3.04,-1.22667 -1.22666,-1.22666 -1.22666,-3.09333 z" />
      <path
         id="path1577"
         style=""
         d="m 296.68318,167.69358 q 3.41333,0 5.86666,0.90666 2.45334,0.85334 4.80001,2.66667 l -2.61334,3.04 q -3.25333,-2.72 -7.73333,-2.72 -4.96,0 -8.10667,3.62667 -3.09333,3.57333 -3.09333,11.41333 0,7.78667 3.04,11.41334 3.04,3.62666 8.10666,3.62666 2.77334,0 4.74667,-0.8 1.97333,-0.8 3.78667,-2.24 l 2.4,2.98667 q -4.10667,4 -10.98667,4 -4.53333,0 -8.16,-2.18667 -3.62667,-2.24 -5.70667,-6.50667 -2.08,-4.26666 -2.08,-10.29333 0,-5.97333 2.08,-10.24 2.13334,-4.32 5.70667,-6.50667 3.62667,-2.18666 7.94667,-2.18666 z" />
      <path
         id="path1579"
         style=""
         d="m 325.62235,176.33358 q 5.81333,0 8.90667,3.94666 3.14666,3.89334 3.14666,10.66667 0,6.61333 -3.2,10.66667 -3.14666,4 -8.90666,4 -5.81334,0 -8.96,-3.89333 -3.14667,-3.94667 -3.14667,-10.72001 0,-6.66666 3.14667,-10.66666 3.2,-4 9.01333,-4 z m 0,3.68 q -3.68,0 -5.49333,2.72 -1.81334,2.72 -1.81334,8.26666 0,5.54667 1.76,8.26667 1.81334,2.66667 5.49334,2.66667 3.68,0 5.44,-2.66667 1.81333,-2.72 1.81333,-8.32 0,-5.54667 -1.81333,-8.21333 -1.76,-2.72 -5.38667,-2.72 z" />
      <path
         id="path1581"
         style=""
         d="m 363.46819,165.08024 q 4,0 7.62667,1.49334 l -1.44,3.36 q -2.66667,-1.17334 -6.02667,-1.17334 -5.86667,0 -5.86667,4.64 v 5.70667 h 9.49334 l -0.48,3.57333 h -9.01334 v 22.34667 h -4.53333 v -22.34667 h -6.66667 v -3.57333 h 6.66667 v -5.6 q 0,-3.78667 2.88,-6.08 2.93333,-2.34667 7.36,-2.34667 z" />
      <path
         id="path1583"
         style=""
         d="m 395.44734,165.08024 q 4,0 7.62667,1.49334 l -1.44,3.36 q -2.66667,-1.17334 -6.02667,-1.17334 -5.86666,0 -5.86666,4.64 v 5.70667 h 9.49333 l -0.48,3.57333 h -9.01333 v 22.34667 h -4.53334 v -22.34667 h -6.66666 v -3.57333 h 6.66666 v -5.6 q 0,-3.78667 2.88,-6.08 2.93334,-2.34667 7.36,-2.34667 z" />
      <path
         id="path1585"
         style=""
         d="m 414.4132,192.54691 q 0.16,4.64 2.4,6.98667 2.29333,2.34667 5.76,2.34667 2.08,0 3.78667,-0.58667 1.76,-0.64 3.73333,-1.92 l 2.08,2.98667 q -1.97333,1.54666 -4.53333,2.4 -2.50667,0.85333 -5.06667,0.85333 -6.08,0 -9.49334,-3.94667 -3.36,-4 -3.36,-10.66667 0,-4.21333 1.49334,-7.52 1.49333,-3.36 4.26666,-5.22666 2.77334,-1.92 6.45334,-1.92 5.33333,0 8.37333,3.73333 3.09334,3.68 3.09334,10.08 0,1.22667 -0.10667,2.4 z m 7.57333,-12.53333 q -3.25333,0 -5.28,2.34666 -2.02667,2.29334 -2.29333,6.77334 h 14.61333 q -0.0533,-4.42667 -1.92,-6.77334 -1.86666,-2.34666 -5.12,-2.34666 z" />
      <path
         id="path1587"
         style=""
         d="m 446.39235,192.54691 q 0.16,4.64 2.4,6.98667 2.29334,2.34667 5.76,2.34667 2.08,0 3.78667,-0.58667 1.76,-0.64 3.73334,-1.92 l 2.08,2.98667 q -1.97334,1.54666 -4.53334,2.4 -2.50667,0.85333 -5.06667,0.85333 -6.08,0 -9.49333,-3.94667 -3.36,-4 -3.36,-10.66667 0,-4.21333 1.49333,-7.52 1.49334,-3.36 4.26667,-5.22666 2.77333,-1.92 6.45333,-1.92 5.33334,0 8.37334,3.73333 3.09333,3.68 3.09333,10.08 0,1.22667 -0.10666,2.4 z m 7.57334,-12.53333 q -3.25334,0 -5.28,2.34666 -2.02667,2.29334 -2.29334,6.77334 h 14.61334 q -0.0533,-4.42667 -1.92,-6.77334 -1.86667,-2.34666 -5.12,-2.34666 z" />
      <path
         id="path1589"
         style=""
         d="m 558.86319,188.33358 -14.45334,16.26667 -3.36,-2.88 7.62667,-8.32001 q 1.86667,-2.08 3.41333,-3.09333 h -44 v -3.94667 h 44 q -1.06666,-0.64 -1.6,-1.12 -0.48,-0.53333 -1.81333,-1.97333 l -7.62667,-8.32 3.36,-2.88 z" />
      <path
         id="path1591"
         style=""
         d="m 616.47487,167.69358 q 3.41333,0 5.86666,0.90666 2.45334,0.85334 4.8,2.66667 l -2.61333,3.04 q -3.25333,-2.72 -7.73333,-2.72 -4.96001,0 -8.10667,3.62667 -3.09334,3.57333 -3.09334,11.41333 0,7.78667 3.04,11.41334 3.04,3.62666 8.10667,3.62666 2.77334,0 4.74667,-0.8 1.97333,-0.8 3.78667,-2.24 l 2.4,2.98667 q -4.10667,4 -10.98667,4 -4.53334,0 -8.16,-2.18667 -3.62667,-2.24 -5.70667,-6.50667 -2.08,-4.26666 -2.08,-10.29333 0,-5.97333 2.08,-10.24 2.13333,-4.32 5.70667,-6.50667 3.62666,-2.18666 7.94667,-2.18666 z" />
      <path
         id="path1593"
         style=""
         d="m 645.41405,176.33358 q 5.81334,0 8.90667,3.94666 3.14667,3.89334 3.14667,10.66667 0,6.61333 -3.2,10.66667 -3.14667,4 -8.90667,4 -5.81334,0 -8.96,-3.89333 -3.14667,-3.94667 -3.14667,-10.72001 0,-6.66666 3.14667,-10.66666 3.2,-4 9.01333,-4 z m 0,3.68 q -3.68,0 -5.49333,2.72 -1.81334,2.72 -1.81334,8.26666 0,5.54667 1.76,8.26667 1.81334,2.66667 5.49334,2.66667 3.68,0 5.44,-2.66667 1.81333,-2.72 1.81333,-8.32 0,-5.54667 -1.81333,-8.21333 -1.76,-2.72 -5.38667,-2.72 z" />
      <path
         id="path1595"
         style=""
         d="m 688.00651,165.61358 v 39.41333 h -3.94667 l -0.42666,-3.68 q -1.54667,2.13334 -3.57334,3.2 -2.02666,1.06667 -4.37333,1.06667 -5.33333,0 -8.05333,-3.89333 -2.66667,-3.89334 -2.66667,-10.72001 0,-4.21333 1.33333,-7.52 1.33334,-3.36 3.78667,-5.22666 2.50667,-1.92 5.86667,-1.92 4.64,0 7.57333,3.36 v -14.61334 z m -10.88,14.34666 q -3.52,0 -5.44,2.77334 -1.86667,2.77333 -1.86667,8.26666 0,5.44 1.70667,8.26667 1.76,2.77334 5.06667,2.77334 4,0 6.93333,-4.48001 v -13.97333 q -1.17333,-1.76 -2.82667,-2.66667 -1.65333,-0.96 -3.57333,-0.96 z" />
      <path
         id="path1597"
         style=""
         d="m 702.2257,192.54691 q 0.16,4.64 2.4,6.98667 2.29333,2.34667 5.76,2.34667 2.08,0 3.78667,-0.58667 1.76,-0.64 3.73333,-1.92 l 2.08,2.98667 q -1.97333,1.54666 -4.53333,2.4 -2.50667,0.85333 -5.06667,0.85333 -6.08,0 -9.49334,-3.94667 -3.36,-4 -3.36,-10.66667 0,-4.21333 1.49334,-7.52 1.49333,-3.36 4.26666,-5.22666 2.77334,-1.92 6.45334,-1.92 5.33333,0 8.37333,3.73333 3.09334,3.68 3.09334,10.08 0,1.22667 -0.10667,2.4 z m 7.57333,-12.53333 q -3.25333,0 -5.28,2.34666 -2.02667,2.29334 -2.29333,6.77334 h 14.61333 q -0.0533,-4.42667 -1.92,-6.77334 -1.86666,-2.34666 -5.12,-2.34666 z" />
    </g>
  </g>
</svg>
